<svg width="306" height="155" viewBox="0 0 306 155" fill="none" xmlns="http://www.w3.org/2000/svg">
<path fill-rule="evenodd" clip-rule="evenodd" d="M77.9999 0.269409L80.4429 1.6375L115.5 21.2694L150.557 1.6375L153 0.269409L155.443 1.6375L190.5 21.2694L225.557 1.6375L228 0.269409L230.443 1.6375L265.5 21.2694L300.557 1.6375L305.443 10.3626L267.943 31.3626L265.5 32.7307L263.057 31.3626L228 11.7307L192.943 31.3626L190.5 32.7307L188.057 31.3626L153 11.7307L117.943 31.3626L115.5 32.7307L113.057 31.3626L77.9999 11.7306L42.9429 31.3626L40.4999 32.7307L38.0569 31.3626L0.556885 10.3626L5.44292 1.6375L40.4999 21.2694L75.5569 1.6375L77.9999 0.269409ZM77.9999 61.2694L80.4429 62.6375L115.5 82.2694L150.557 62.6375L153 61.2694L155.443 62.6375L190.5 82.2694L225.557 62.6375L228 61.2694L230.443 62.6375L265.5 82.2694L300.557 62.6375L305.443 71.3626L267.943 92.3626L265.5 93.7307L263.057 92.3626L228 72.7307L192.943 92.3626L190.5 93.7307L188.057 92.3626L153 72.7307L117.943 92.3626L115.5 93.7307L113.057 92.3626L77.9999 72.7307L42.9429 92.3626L40.4999 93.7307L38.0569 92.3626L0.556885 71.3626L5.44292 62.6375L40.4999 82.2694L75.5569 62.6375L77.9999 61.2694ZM80.4429 123.637L77.9999 122.269L75.5569 123.637L40.4999 143.269L5.44292 123.637L0.556885 132.363L38.0569 153.363L40.4999 154.731L42.9429 153.363L77.9999 133.731L113.057 153.363L115.5 154.731L117.943 153.363L153 133.731L188.057 153.363L190.5 154.731L192.943 153.363L228 133.731L263.057 153.363L265.5 154.731L267.943 153.363L305.443 132.363L300.557 123.637L265.5 143.269L230.443 123.637L228 122.269L225.557 123.637L190.5 143.269L155.443 123.637L153 122.269L150.557 123.637L115.5 143.269L80.4429 123.637Z" fill="white"/>
</svg>
